<?xml version="1.0" standalone="no"?>
<!DOCTYPE svg PUBLIC "-//W3C//DTD SVG 20010904//EN"
 "http://www.w3.org/TR/2001/REC-SVG-20010904/DTD/svg10.dtd">
<svg version="1.0" xmlns="http://www.w3.org/2000/svg"
 width="300.000000pt" height="300.000000pt" viewBox="0 0 300.000000 300.000000"
 preserveAspectRatio="xMidYMid meet">
<metadata>
Created by potrace 1.10, written by Peter Selinger 2001-2011
</metadata>
<g transform="translate(0.000000,300.000000) scale(0.100000,-0.100000)"
fill="#000000" stroke="none">
<path d="M1484 2329 c-29 -7 -63 -28 -109 -69 -38 -33 -75 -60 -84 -60 -109
-1 -330 -41 -472 -86 -180 -56 -440 -203 -531 -300 -49 -53 -97 -145 -113
-218 -19 -86 -18 -84 -75 -123 -83 -57 -112 -103 -86 -138 23 -32 93 -22 220
31 199 82 387 134 484 134 52 0 53 0 80 -47 42 -75 130 -157 187 -176 49 -17
106 -22 118 -11 4 4 -3 20 -14 35 -28 39 -79 154 -79 178 0 65 37 81 186 81
355 0 777 -141 1172 -393 94 -60 112 -75 107 -92 -32 -114 -25 -207 24 -309
39 -80 66 -114 81 -100 7 7 7 26 -1 63 -22 102 16 218 98 303 64 65 143 99
240 102 87 3 101 15 52 45 -85 52 -271 65 -363 26 -21 -9 -39 -15 -40 -13 -2
2 -22 39 -45 83 -67 126 -204 323 -301 433 -161 182 -359 333 -536 412 -131
58 -146 79 -99 148 33 48 32 58 -6 66 -37 7 -41 7 -95 -5z m86 -26 c0 -5 -9
-21 -20 -38 -45 -69 -17 -106 137 -180 111 -54 232 -128 287 -177 15 -13 54
-48 89 -78 149 -131 333 -375 445 -590 13 -25 33 -53 44 -62 18 -16 22 -16 56
-2 49 21 186 29 240 15 46 -13 57 -31 17 -31 -51 0 -136 -42 -195 -97 -79 -73
-111 -139 -119 -246 l-6 -82 -25 45 c-19 36 -25 64 -28 141 -3 60 0 111 8 134
10 32 10 39 -6 57 -19 20 -178 128 -189 128 -4 0 -19 8 -33 19 -116 81 -520
250 -657 275 -16 3 -57 12 -90 20 -96 23 -209 36 -326 37 -122 1 -166 -13
-203 -64 -18 -25 -19 -32 -8 -73 7 -25 26 -73 42 -106 l30 -60 -33 7 c-78 17
-163 89 -208 177 -32 63 -61 69 -219 41 -93 -16 -254 -65 -313 -94 -41 -21
-156 -63 -200 -73 -15 -4 -37 -1 -48 5 l-21 11 24 25 c12 14 47 43 76 65 56
42 66 58 88 152 22 92 61 152 144 225 192 169 525 301 837 331 92 9 125 16
150 33 18 12 33 25 33 28 0 12 73 62 109 75 40 15 91 18 91 7z"/>
</g>
</svg>