<?xml version="1.0" standalone="no"?>
<!DOCTYPE svg PUBLIC "-//W3C//DTD SVG 20010904//EN"
 "http://www.w3.org/TR/2001/REC-SVG-20010904/DTD/svg10.dtd">
<svg version="1.0" xmlns="http://www.w3.org/2000/svg"
 width="1439.000000pt" height="274.000000pt" viewBox="0 0 1439.000000 274.000000"
 preserveAspectRatio="xMidYMid meet">

<g transform="translate(0.000000,274.000000) scale(0.100000,-0.100000)"
fill="#000000" stroke="none">
<path d="M5335 2603 c-64 -19 -96 -42 -175 -124 l-65 -67 -80 -7 c-144 -11
-233 -25 -372 -60 -372 -91 -687 -257 -903 -474 -136 -137 -191 -239 -215
-401 -13 -89 -23 -107 -89 -154 -124 -88 -168 -162 -129 -215 16 -21 30 -27
68 -29 61 -4 114 13 284 93 227 106 499 185 636 185 62 0 50 11 125 -122 44
-80 140 -177 205 -208 55 -27 169 -40 187 -22 7 7 4 19 -9 39 -58 82 -113 223
-113 291 0 90 89 130 269 118 309 -21 574 -81 861 -196 247 -98 572 -280 800
-448 l99 -73 -17 -37 c-14 -30 -17 -67 -17 -187 1 -145 2 -153 33 -231 36 -90
100 -189 122 -189 11 0 14 11 13 45 -7 156 -5 232 6 280 31 129 131 265 241
328 68 39 183 66 256 60 57 -5 82 8 71 36 -9 24 -147 83 -224 96 -102 18 -233
9 -309 -22 l-61 -25 -53 106 c-266 536 -608 951 -985 1197 -44 29 -134 79
-199 111 -166 81 -181 109 -116 216 17 27 30 57 30 68 0 39 -85 50 -175 22z"/>
<path d="M8149 2333 l-46 -16 -152 -596 c-84 -328 -159 -603 -168 -613 -8 -9
-29 -18 -47 -20 -23 -2 -32 -8 -34 -25 -3 -23 -3 -23 137 -23 l141 0 0 25 c0
22 -4 25 -35 25 -24 0 -37 6 -45 19 -18 34 -11 118 19 239 16 64 32 129 35
145 l6 27 169 0 c167 0 169 0 174 -22 91 -397 92 -408 27 -408 -36 0 -40 -3
-40 -25 l0 -25 160 0 160 0 0 25 c0 21 -5 25 -28 25 -34 0 -65 31 -80 80 -11
33 -252 1033 -273 1133 -12 51 -13 52 -80 30z m65 -454 l72 -304 -149 -3 c-83
-1 -152 -1 -154 1 -2 3 31 142 73 311 42 169 79 305 81 302 2 -2 37 -140 77
-307z"/>
<path d="M11029 2333 l-46 -16 -152 -596 c-84 -328 -159 -603 -168 -613 -8 -9
-29 -18 -47 -20 -23 -2 -32 -8 -34 -25 -3 -23 -3 -23 137 -23 l141 0 0 25 c0
22 -4 25 -35 25 -24 0 -37 6 -45 19 -18 34 -11 118 19 239 16 64 32 129 35
145 l6 27 169 0 c167 0 169 0 174 -22 91 -397 92 -408 27 -408 -36 0 -40 -3
-40 -25 l0 -25 160 0 160 0 0 25 c0 21 -5 25 -28 25 -34 0 -65 31 -80 80 -11
33 -252 1033 -273 1133 -12 51 -13 52 -80 30z m65 -454 l72 -304 -149 -3 c-83
-1 -152 -1 -154 1 -2 3 31 142 73 311 42 169 79 305 81 302 2 -2 37 -140 77
-307z"/>
<path d="M60 2301 c0 -15 10 -19 46 -24 26 -2 50 -11 55 -18 5 -8 9 -269 9
-580 0 -632 5 -589 -72 -593 -36 -2 -44 -6 -46 -24 -3 -22 -3 -22 183 -22
l186 0 -3 22 c-2 19 -10 24 -48 26 -24 2 -50 8 -57 14 -10 8 -13 78 -13 300
l0 289 154 -3 c137 -3 156 -5 176 -23 34 -31 49 -67 52 -128 3 -51 5 -57 26
-57 l22 0 0 220 0 220 -23 0 c-22 0 -24 -5 -25 -52 -1 -56 -22 -94 -63 -115
-16 -8 -74 -13 -171 -13 l-148 0 0 255 0 255 25 16 c21 14 48 16 173 12 137
-4 151 -6 205 -33 62 -31 131 -99 169 -166 21 -38 41 -49 53 -29 4 6 -13 69
-37 140 l-42 130 -393 0 c-377 0 -393 -1 -393 -19z"/>
<path d="M1150 2300 c0 -19 7 -20 98 -20 72 0 103 -4 120 -16 l22 -15 0 -559
c0 -307 -3 -565 -6 -574 -10 -25 -78 -38 -160 -31 l-74 7 0 -26 0 -26 300 0
300 0 0 25 0 25 -104 0 c-82 0 -108 3 -120 16 -14 14 -16 79 -16 573 0 465 2
560 14 577 12 16 29 19 120 22 96 4 106 6 106 23 0 18 -11 19 -300 19 -293 0
-300 0 -300 -20z"/>
<path d="M1960 2300 c0 -16 6 -20 33 -20 18 0 43 -7 55 -16 l22 -15 0 -568 c0
-476 -2 -570 -14 -580 -8 -7 -36 -13 -63 -15 -41 -2 -48 -6 -51 -24 -3 -22 -2
-22 153 -22 l156 0 -3 22 c-3 20 -11 24 -53 28 -27 3 -56 9 -62 13 -10 6 -13
124 -13 533 0 288 3 524 8 524 4 0 134 -252 290 -560 258 -509 285 -560 308
-560 l24 0 0 604 c0 679 -7 625 80 634 41 4 50 8 50 23 0 18 -10 19 -155 19
-148 0 -155 -1 -155 -20 0 -17 7 -20 43 -20 23 0 53 -7 65 -16 l22 -15 0 -462
c0 -293 -3 -458 -10 -451 -5 5 -121 227 -259 494 l-249 485 -111 3 c-106 3
-111 2 -111 -18z"/>
<path d="M8700 2302 c0 -16 9 -20 46 -25 26 -2 50 -11 55 -18 5 -8 9 -269 9
-580 0 -632 5 -589 -72 -593 -36 -2 -44 -6 -46 -24 -3 -22 -3 -22 183 -22
l186 0 -3 22 c-2 19 -10 24 -48 26 -24 2 -50 8 -57 14 -10 8 -13 73 -13 273
l0 263 163 4 c202 5 252 21 339 108 68 68 88 124 88 246 0 73 -4 89 -33 145
-22 44 -48 75 -82 101 -91 69 -106 72 -427 76 -280 3 -288 3 -288 -16z m496
-33 c79 -14 138 -50 168 -102 44 -75 55 -206 26 -306 -36 -126 -181 -193 -377
-175 l-73 6 0 279 c0 276 0 278 22 293 27 19 144 21 234 5z"/>
<path d="M9660 2302 c0 -16 9 -20 46 -25 26 -2 50 -11 55 -18 5 -8 9 -269 9
-580 0 -632 5 -589 -72 -593 -36 -2 -44 -6 -46 -24 -3 -22 -3 -22 183 -22
l186 0 -3 22 c-2 19 -10 24 -48 26 -24 2 -50 8 -57 14 -10 8 -13 73 -13 273
l0 263 163 4 c202 5 252 21 339 108 68 68 88 124 88 246 0 73 -4 89 -33 145
-22 44 -48 75 -82 101 -91 69 -106 72 -427 76 -280 3 -288 3 -288 -16z m496
-33 c79 -14 138 -50 168 -102 44 -75 55 -206 26 -306 -36 -126 -181 -193 -377
-175 l-73 6 0 279 c0 276 0 278 22 293 27 19 144 21 234 5z"/>
<path d="M11590 2300 c0 -16 7 -20 33 -20 18 0 43 -7 55 -16 l22 -15 0 -568
c0 -633 5 -593 -70 -595 -35 -1 -40 -4 -40 -23 l0 -23 176 0 175 0 -3 22 c-2
19 -10 24 -45 26 -73 5 -73 7 -73 319 l0 273 88 0 89 0 123 -320 123 -320 103
0 104 0 0 25 c0 22 -4 25 -38 25 -27 0 -45 7 -59 23 -17 18 -226 522 -235 566
-2 8 14 18 42 27 61 19 135 76 170 130 61 97 63 256 2 353 -33 54 -110 105
-184 120 -27 6 -162 11 -303 11 -248 0 -255 -1 -255 -20z m505 -41 c162 -47
211 -329 79 -456 -57 -56 -118 -73 -251 -73 l-103 0 0 250 0 251 26 26 c25 25
29 26 117 20 51 -3 110 -11 132 -18z"/>
<path d="M12550 2300 c0 -14 7 -20 23 -20 48 0 67 -12 78 -49 7 -24 9 -214 7
-573 -3 -603 1 -570 -77 -572 -36 -1 -41 -4 -41 -23 l0 -23 383 0 384 0 41
142 c38 132 40 144 25 156 -15 11 -20 5 -45 -49 -41 -91 -80 -134 -155 -171
-65 -32 -68 -32 -213 -33 -110 0 -151 3 -163 14 -15 12 -17 46 -17 312 l0 299
123 0 c96 0 129 -4 157 -18 42 -21 67 -68 73 -137 3 -42 7 -50 25 -53 l22 -3
0 225 0 226 -24 0 c-22 0 -24 -4 -25 -55 -1 -116 -47 -145 -231 -145 l-120 0
0 249 c0 304 -14 281 165 281 193 0 259 -32 346 -165 35 -54 44 -63 59 -55 17
9 16 18 -23 135 l-42 125 -367 0 c-361 0 -368 0 -368 -20z"/>
<path d="M13520 2300 c0 -16 7 -20 33 -20 18 0 43 -7 55 -16 l22 -15 0 -562
c0 -309 -4 -568 -8 -575 -11 -16 -72 -33 -94 -26 -14 4 -18 0 -18 -20 l0 -26
387 2 388 3 32 140 c31 131 32 141 15 153 -14 11 -18 10 -26 -10 -48 -121 -90
-179 -155 -212 -88 -46 -364 -48 -393 -4 -4 7 -8 263 -8 569 0 442 3 559 13
573 8 11 31 20 60 23 37 5 47 9 47 24 0 18 -11 19 -175 19 -168 0 -175 -1
-175 -20z"/>
</g>
</svg>
